<svg width="32" height="32" viewBox="0 0 32 32" fill="none" xmlns="http://www.w3.org/2000/svg">
<rect width="32" height="32" rx="16" fill="#964233"/>
<path d="M6.30645 9.59677C6.30645 8.31672 7.50733 8 7.87683 8C6.8739 8 5 8.64663 5 10.283C5 11.9325 7.13783 13.0938 10.3578 12.2757C7.91642 12.6452 6.30645 10.8636 6.30645 9.59677ZM17.5762 22.7668V20.2595L14.2639 13.6481C12.588 10.2698 11.5718 8 8.20674 8C9.8695 8 11.2551 11.3255 12.2317 13.305L15.7287 20.2595V22.7668C15.7287 23.3739 15.2405 23.9545 14.6334 23.9545H18.6716C18.0645 23.9545 17.5762 23.3739 17.5762 22.7668ZM23.1451 8.88416C20.915 8.88416 16.0322 10.8768 14.3431 11.3123C17.7082 10.5337 21.0469 9.99267 22.7493 9.99267C24.8212 9.99267 26.4838 11.0616 26.4575 12.2361C26.6422 10.7449 25.7844 8.88416 23.1451 8.88416ZM14.2771 11.3387C14.2111 11.3519 14.1584 11.3651 14.1056 11.3783L14.2771 11.3387ZM19.6085 15.9047C19.912 15.2976 20.7433 14.717 21.3504 14.717H19.0675C19.6745 14.717 19.912 15.2976 19.6085 15.9047Z" fill="white"/>
</svg>
