<svg width="655" height="123" viewBox="0 0 655 123" fill="none" xmlns="http://www.w3.org/2000/svg">
<path d="M9.97919 12.1968C9.97919 2.4192 19.152 0 21.9744 0C14.3136 0 0 4.93919 0 17.4384C0 30.0384 16.3296 38.9088 40.9248 32.6592C22.2768 35.4816 9.97919 21.8736 9.97919 12.1968ZM96.0624 112.795V93.6432L70.7616 43.1424C57.96 17.3376 50.1984 0 24.4944 0C37.1952 0 47.7792 25.4016 55.2384 40.5216L81.9504 93.6432V112.795C81.9504 117.432 78.2208 121.867 73.584 121.867H104.429C99.792 121.867 96.0624 117.432 96.0624 112.795ZM138.6 6.7536C121.565 6.7536 84.2688 21.9744 71.3664 25.3008C97.0704 19.3536 122.573 15.2208 135.576 15.2208C151.402 15.2208 164.102 23.3856 163.901 32.3568C165.312 20.9664 158.76 6.7536 138.6 6.7536ZM70.8624 25.5024C70.3584 25.6032 69.9552 25.704 69.552 25.8048L70.8624 25.5024ZM111.586 60.3792C113.904 55.7424 120.254 51.3072 124.891 51.3072H107.453C112.09 51.3072 113.904 55.7424 111.586 60.3792Z" fill="white"/>
<path d="M178.46 118.541C176.041 118.541 174.025 116.525 174.025 114.106V90.3168C174.025 76.2048 164.046 69.8544 153.26 71.7696C155.881 71.7696 161.324 74.4912 161.324 80.136V111.787C161.324 117.734 166.162 122.573 172.11 122.573C175.94 122.573 179.367 120.557 181.282 117.533C180.476 118.138 179.569 118.541 178.46 118.541ZM148.623 85.9824C145.398 85.5792 142.878 82.5552 142.878 78.9264C142.878 74.9952 145.801 71.7696 149.43 71.7696C141.366 71.7696 131.89 74.8944 131.89 82.9584C131.89 91.1232 143.785 92.5344 148.623 85.9824ZM147.716 117.23C145.297 113.4 145.196 108.158 146.305 103.824C147.414 99.5904 149.833 95.6592 153.26 92.8368C143.382 93.5424 131.185 100.498 131.185 110.88C131.185 124.186 147.817 123.883 154.066 121.061C151.446 120.96 149.127 119.347 147.716 117.23Z" fill="white"/>
<path d="M221.753 112.795V44.2512C212.58 48.888 206.936 51.3072 199.98 51.3072H200.686C205.323 51.3072 209.052 55.7424 209.052 60.3792V112.795C209.052 117.432 205.323 121.867 200.686 121.867H230.12C225.483 121.867 221.753 117.432 221.753 112.795Z" fill="white"/>
<path d="M270.6 112.795V44.2512C261.427 48.888 255.783 51.3072 248.827 51.3072H249.533C254.17 51.3072 257.899 55.7424 257.899 60.3792V112.795C257.899 117.432 254.17 121.867 249.533 121.867H278.967C274.33 121.867 270.6 117.432 270.6 112.795Z" fill="white"/>
<path d="M347.838 118.541C345.419 118.541 343.403 116.525 343.403 114.106V90.3168C343.403 76.2048 333.424 69.8544 322.638 71.7696C325.259 71.7696 330.702 74.4912 330.702 80.136V111.787C330.702 117.734 335.541 122.573 341.488 122.573C345.318 122.573 348.745 120.557 350.661 117.533C349.854 118.138 348.947 118.541 347.838 118.541ZM318.001 85.9824C314.776 85.5792 312.256 82.5552 312.256 78.9264C312.256 74.9952 315.179 71.7696 318.808 71.7696C310.744 71.7696 301.269 74.8944 301.269 82.9584C301.269 91.1232 313.163 92.5344 318.001 85.9824ZM317.094 117.23C314.675 113.4 314.574 108.158 315.683 103.824C316.792 99.5904 319.211 95.6592 322.638 92.8368C312.76 93.5424 300.563 100.498 300.563 110.88C300.563 124.186 317.195 123.883 323.445 121.061C320.824 120.96 318.505 119.347 317.094 117.23Z" fill="white"/>
<path d="M391.131 72.4752V48.4848C391.131 44.5536 395.365 39.4128 397.986 39.4128C387.603 39.4128 378.431 44.2512 378.431 58.3632V112.795C378.431 117.432 374.6 121.867 369.963 121.867H399.498C394.861 121.867 391.131 117.432 391.131 112.795V73.8864H402.421V72.4752H391.131ZM405.344 58.3632C408.771 58.3632 411.493 55.6416 411.493 52.3152C411.493 48.888 408.771 46.1664 405.344 46.1664C402.018 46.1664 399.296 48.888 399.296 52.3152C399.296 55.6416 402.018 58.3632 405.344 58.3632Z" fill="white"/>
<path d="M463.268 70.7615H463.167C462.663 70.5599 462.159 70.4591 461.655 70.3583C456.615 69.6527 449.962 72.0719 447.845 76.0031C450.365 74.4911 454.297 74.4911 454.095 76.6079V77.3135C454.095 81.0431 457.22 84.1679 460.949 84.1679C464.78 84.1679 467.905 81.0431 467.905 77.3135C467.905 74.2895 465.989 71.6687 463.268 70.7615ZM443.914 112.795V72.4751C434.842 77.1119 429.197 79.5311 422.141 79.5311H422.847C427.484 79.5311 431.213 83.9663 431.213 88.6031V112.795C431.213 117.432 427.484 121.867 422.847 121.867H452.281C447.644 121.867 443.914 117.432 443.914 112.795Z" fill="white"/>
<path d="M501.661 63.7057C506.5 63.7057 510.431 59.6737 510.431 54.8353C510.431 49.9969 506.5 46.0657 501.661 46.0657C496.722 46.0657 492.791 49.9969 492.791 54.8353C492.791 59.6737 496.722 63.7057 501.661 63.7057ZM508.314 112.795V72.4753C499.242 77.1121 493.598 79.5313 486.542 79.5313H487.247C491.884 79.5313 495.614 83.9665 495.614 88.6033V112.795C495.614 117.432 491.884 121.867 487.247 121.867H516.681C512.044 121.867 508.314 117.432 508.314 112.795Z" fill="white"/>
<path d="M551.315 93.0383C551.315 79.5311 558.572 71.7695 561.395 71.7695C547.384 71.7695 535.993 83.1599 535.993 97.1711C535.993 111.182 547.384 122.573 561.395 122.573C568.451 122.573 574.801 119.75 579.337 115.114C559.379 122.27 551.315 106.646 551.315 93.0383ZM578.632 87.2927V71.7695H578.027C578.027 73.8863 576.313 73.7855 573.995 72.9791C571.273 72.1727 569.761 71.7695 566.636 71.7695C573.592 72.6767 576.616 78.3215 578.632 87.2927Z" fill="white"/>
<path d="M651.529 118.541C649.109 118.541 647.093 116.525 647.093 114.106V90.3168C647.093 76.2048 637.114 69.8544 626.329 71.7696C628.949 71.7696 634.393 74.4912 634.393 80.136V111.787C634.393 117.734 639.231 122.573 645.178 122.573C649.009 122.573 652.436 120.557 654.351 117.533C653.545 118.138 652.637 118.541 651.529 118.541ZM621.692 85.9824C618.466 85.5792 615.946 82.5552 615.946 78.9264C615.946 74.9952 618.869 71.7696 622.498 71.7696C614.434 71.7696 604.959 74.8944 604.959 82.9584C604.959 91.1232 616.853 92.5344 621.692 85.9824ZM620.785 117.23C618.365 113.4 618.265 108.158 619.373 103.824C620.482 99.5904 622.901 95.6592 626.329 92.8368C616.45 93.5424 604.253 100.498 604.253 110.88C604.253 124.186 620.885 123.883 627.135 121.061C624.514 120.96 622.196 119.347 620.785 117.23Z" fill="white"/>
</svg>
