<svg width="40" height="33" viewBox="0 0 40 33" fill="none" xmlns="http://www.w3.org/2000/svg">
<path fill-rule="evenodd" clip-rule="evenodd" d="M12.3626 9.84489C12.5268 10.0815 12.6912 10.318 12.9078 10.6298C13.0553 10.0689 12.7826 9.90126 12.3626 9.84489ZM31.1334 14.8524C31.6062 14.7165 31.8031 14.4226 31.7605 13.7722C31.5568 14.1229 31.3533 14.4736 31.1334 14.8524ZM26.3732 13.173C25.6667 13.0913 25.1149 13.2919 24.7751 13.8921C25.317 13.6483 25.8451 13.4107 26.3732 13.173ZM24.2862 12.6618C24.3313 12.6073 24.3763 12.5528 24.4214 12.4984C24.3066 12.0616 24.1918 11.625 24.077 11.1884C24.0419 11.3791 24.0734 11.5584 24.0917 11.739C24.1213 12.0318 24.083 12.2371 23.6895 12.1174C23.4447 12.0429 23.1792 12.0357 22.9229 11.9983C22.9099 12.0315 22.8972 12.0647 22.8843 12.0979C23.3516 12.2859 23.8189 12.4738 24.2862 12.6618ZM14.4854 8.6878C14.3635 8.70581 14.2465 8.6933 14.1643 8.74062C13.8205 8.9385 13.5221 8.97891 13.2277 8.63525C13.152 8.54686 12.9452 8.56972 12.7987 8.54144C12.7822 8.57906 12.7658 8.61658 12.7493 8.65419C13.0222 8.94755 13.2951 9.24091 13.5507 9.51569C13.8918 9.21356 14.1628 8.9735 14.4854 8.6878ZM25.3517 11.0611C25.3094 11.0975 25.2671 11.1339 25.225 11.1703C25.2771 11.5703 25.3291 11.9704 25.3743 12.3164C25.7428 12.2336 26.058 12.1629 26.4349 12.0783C26.4476 11.9835 26.4689 11.8246 26.4715 11.8043C26.0416 11.519 25.6966 11.29 25.3517 11.0611ZM23.5068 16.3077C24.5992 15.9514 24.8686 15.3286 24.451 14.2445C24.1306 14.9445 23.8413 15.5769 23.5068 16.3077ZM10.3373 10.3098C10.1311 9.818 9.92508 9.32668 9.70324 8.79765C9.52792 9.15224 8.85525 9.20376 9.03723 9.66671C9.23075 10.1591 9.787 10.2979 10.3373 10.3098ZM28.976 12.4125C28.791 12.3377 28.6275 12.3079 28.5115 12.2178C28.1728 11.9545 27.9463 12.022 27.7158 12.3725C27.6084 12.5359 27.385 12.7266 27.2148 12.7259C26.7776 12.7243 26.6452 13.0043 26.6615 13.3061C26.6807 13.6601 27.0228 13.647 27.307 13.6592C28.2038 13.6972 28.5557 13.0283 28.976 12.4125ZM14.7447 9.48433C14.6119 9.87634 14.4838 10.2246 14.3795 10.5797C14.347 10.6904 14.3647 10.8221 14.3843 10.94C14.4272 11.1973 14.4752 11.4548 14.5416 11.7069C14.5961 11.9136 14.6798 12.1126 14.7507 12.3149C14.9933 12.2217 15.2666 12.1686 15.4665 12.0188C15.5714 11.9401 15.6152 11.6717 15.5699 11.5243C15.4433 11.1115 15.3943 10.7378 15.8762 10.3548C15.4759 10.0469 15.1253 9.77712 14.7447 9.48433ZM12.631 10.7833C12.3287 10.291 12.119 9.68967 11.6985 9.33835C11.285 8.99291 10.6574 8.90107 10.0711 8.6779C10.1995 9.61799 10.6522 10.2114 11.3656 10.6919C11.8097 10.9909 12.1608 11.3 12.631 10.7833ZM28.1371 13.9051C28.8527 13.8647 29.5525 13.8569 30.2418 13.768C30.4646 13.7393 30.7071 13.5346 30.8557 13.3445C31.0579 13.0859 31.1783 12.764 31.404 12.3363C30.7784 12.2826 30.2195 12.2219 29.6591 12.1978C29.5562 12.1934 29.4249 12.3192 29.3442 12.4158C28.9522 12.8849 28.573 13.3646 28.1371 13.9051ZM24.6616 16.7961C25.0792 16.6298 25.4083 16.4972 25.7387 16.3678C26.6104 16.0264 27.4832 15.6877 28.3535 15.3427C28.4219 15.3156 28.4844 15.2571 28.5327 15.1991C28.9972 14.6409 29.5607 14.3441 30.3195 14.3917C30.7161 14.4166 31.0508 14.2034 31.2867 13.6767C29.5002 14.6134 27.7073 14.0167 25.9637 14.0714C25.9164 14.3166 25.8771 14.5199 25.8328 14.7496C25.6378 14.7042 25.4983 14.6716 25.2991 14.6252C25.5022 15.4691 25.095 16.0967 24.6616 16.7961ZM24.2753 13.2247C23.5211 12.8167 22.8088 12.4315 22.0774 12.036C21.7356 12.2975 21.5711 12.2336 21.4144 11.7355C21.2309 11.1516 20.978 11.001 20.3916 11.126C20.3521 11.3692 20.3345 11.6185 20.2681 11.8541C20.1572 12.2477 20.0526 12.2579 19.7382 12.0002C19.564 11.8575 19.3555 11.7449 19.1459 11.6593C18.9024 11.5599 18.6407 11.505 18.3373 11.4161C18.4045 11.9884 18.0589 12.1183 17.5346 12.113C17.0718 12.1082 16.7007 11.994 16.4035 11.5431C16.8656 12.1908 16.4721 12.4403 15.9933 12.6547C15.9652 12.6672 15.9298 12.6831 15.9174 12.7073C15.8226 12.8925 15.6551 13.0852 15.6668 13.2653C15.6755 13.3972 15.9087 13.5342 16.0652 13.6316C16.2613 13.7537 16.5186 13.7963 16.6851 13.9447C17.8788 15.0086 18.9995 16.1028 19.1635 17.8457C19.2327 18.5818 19.4199 19.3413 19.968 19.9276C21.4868 18.917 21.6291 19.032 22.258 17.3644C22.6548 16.3124 22.8266 15.1638 23.5575 14.2458C23.789 13.9551 23.9868 13.6377 24.2753 13.2247ZM20.8682 28.75H17.3649C17.4964 28.1841 17.665 27.6244 17.7513 27.0523C17.9244 25.9053 18.0846 24.7542 18.1802 23.5989C18.21 23.2393 18.0608 22.8414 17.9119 22.4959C17.6643 21.9219 17.4449 21.3778 17.8387 20.7785C17.8973 20.6894 17.8527 20.5167 17.8242 20.3896C17.6015 19.3936 17.4287 18.381 17.1192 17.4119C16.9571 16.9043 16.605 16.4266 16.2435 16.0188C15.6044 15.2978 14.8992 14.6339 14.2094 13.9585C13.5819 13.3442 13.3084 12.604 13.3292 11.737C13.3456 11.0566 13.119 10.9139 12.5095 11.2489C12.1031 11.4725 11.8006 11.4766 11.4258 11.1423C10.7456 10.5355 9.88869 10.5193 9.0376 10.6424C8.83939 10.671 8.60826 10.8093 8.48753 10.9688C8.17141 11.386 7.74611 11.4831 7.26611 11.5482C6.82073 11.6086 6.38407 11.7402 5.9475 11.8554C5.29041 12.0286 4.63706 12.2153 3.98184 12.3954C3.76196 12.456 3.49762 12.5979 3.38899 12.274C3.28853 11.9741 3.42539 11.7201 3.71083 11.5767C3.84769 11.5081 4.01016 11.4917 4.15331 11.4329C4.26587 11.3866 4.36653 11.3116 4.47318 11.2489C4.15697 10.9368 3.80642 10.7403 4.21194 10.3738C4.24439 10.3445 4.25856 10.2365 4.23445 10.2134C4.03924 10.0255 3.85651 9.75295 3.62322 9.6962C3.38974 9.63945 3.09604 9.78394 2.84099 9.87438C2.68659 9.92917 2.56014 10.1133 2.41296 10.1237C2.21409 10.1377 1.93296 10.1015 1.82612 9.97266C1.73166 9.8587 1.8159 9.5869 1.84497 9.38819C1.85689 9.30745 1.93165 9.23587 1.97367 9.16698C1.57435 9.27357 1.19894 9.42664 0.812471 9.46305C0.374218 9.5043 -0.0773551 8.89015 0.0122279 8.28524C0.0925243 7.74295 0.332008 7.22409 0.475153 6.77645C0.324316 6.58343 0.0889603 6.39928 0.0203894 6.16659C-0.0751033 5.84215 0.180794 5.65763 0.455734 5.48505C0.689588 5.33823 0.918377 5.15772 0.782642 4.75152C0.727673 4.58706 1.03995 4.30117 1.21189 4.02807C1.43139 4.27709 1.58805 4.4548 1.79986 4.69514C1.89019 4.5165 1.94281 4.40039 2.00613 4.29044C2.07189 4.17619 2.12263 4.02499 2.22451 3.96534C2.49588 3.80658 2.68518 3.62317 2.81078 3.3132C2.95843 2.94872 3.1997 3.01891 3.4828 3.30088C3.6886 3.50585 4.0459 3.67423 4.32469 3.65901C4.57909 3.6452 4.83227 3.37863 5.05758 3.18981C5.13516 3.12485 5.10383 2.94555 5.16339 2.84176C5.2496 2.69149 5.35044 2.49184 5.48843 2.44779C5.5902 2.41531 5.76121 2.59787 5.97039 2.72733C6.02245 2.71837 6.17582 2.65798 6.32103 2.67338C6.79334 2.72332 7.15589 2.59741 7.59245 2.34988C7.99281 2.12298 8.54466 1.98876 9.05045 1.90541C9.29003 1.86583 9.54602 1.92548 9.80905 1.94106C9.80905 1.94106 9.83578 1.91642 9.83775 1.88945C9.89826 1.00928 9.90163 1.0007 10.6927 1.3382C11.0709 1.49958 11.4378 1.59553 11.8507 1.47186C12.0088 1.42454 12.1944 1.44358 12.3635 1.46411C12.6523 1.49912 12.842 1.45151 12.9775 1.13921C13.1294 0.788544 13.441 0.746916 13.7501 0.982311C14.0391 1.20221 14.2554 1.32486 14.4418 0.850801C14.5646 0.538404 14.9061 0.632206 15.0742 0.794145C15.758 1.45273 16.55 1.09422 17.2997 1.05791C17.4601 1.05017 17.6152 0.832227 17.7635 0.700809C17.9836 0.505829 18.1697 0.259048 18.4168 0.110736C18.8667 -0.159566 19.3787 0.0881478 19.4184 0.602432C19.4535 1.05614 19.5912 1.16357 20.0298 0.997245C20.6176 0.774264 20.7969 0.899989 20.9269 1.52712C20.9862 1.81301 21.0958 1.97354 21.4394 1.87162C21.8467 1.75075 22.2371 1.81823 22.5918 2.07836C22.7261 2.17692 22.8881 2.25439 23.0494 2.29649C23.2725 2.35464 23.48 2.33037 23.3881 2.00752C23.3122 1.7402 23.4015 1.62204 23.68 1.63716C23.7231 1.63949 23.7678 1.61317 23.8118 1.60039C24.5809 1.37824 24.9374 1.62456 24.9764 2.44032C25.0795 2.38992 25.1961 2.36798 25.2558 2.29798C25.5688 1.92996 25.9173 1.75364 26.4372 1.82757C26.6696 1.86061 26.9388 1.61924 27.1947 1.51041C27.7773 1.26279 28.3507 0.987166 28.9485 0.783132C29.8934 0.460561 30.7493 0.917442 31.6106 1.19428C31.7524 1.23983 31.8015 1.56977 31.8942 1.76792C31.9617 1.91222 32.0299 2.05596 32.0978 2.19998C32.2186 2.11831 32.3493 2.04775 32.4584 1.95273C32.7836 1.66955 33.0855 1.3579 33.425 1.09366C33.693 0.885148 34.4954 1.19185 34.6902 1.61803C34.8569 1.98288 35.0823 2.1745 35.4667 2.25859C35.613 2.2907 35.7668 2.43836 35.8519 2.57398C36.277 3.25085 36.5043 3.97337 36.3114 4.78512C36.2206 5.16733 36.0742 5.42923 35.5998 5.22483C35.618 5.38667 35.6407 5.50689 35.6435 5.62757C35.6535 6.07755 35.4856 6.22521 35.0368 6.24154C34.8974 6.24649 34.762 6.36446 34.6248 6.43073C34.7487 6.54563 34.8562 6.69422 35.0019 6.76469C35.1161 6.82004 35.2795 6.79391 35.4179 6.77795C35.9345 6.71821 36.2951 6.87679 36.4535 7.41244C36.5706 7.80856 36.8158 7.80157 37.1355 7.5938C37.3895 7.42869 37.6682 7.25499 37.9577 7.20095C38.4018 7.11797 38.8007 7.24388 38.9477 7.75331C38.9648 7.81239 38.9916 7.87073 39.0244 7.9229C39.4805 8.64972 39.4733 8.71253 38.9131 9.19078C39.198 9.41442 39.5402 9.60473 39.7733 9.88474C40.1088 10.2879 40.07 10.705 39.6694 11.039C39.2192 11.4145 39.0444 11.7835 39.2849 12.3692C39.3766 12.5927 39.205 12.9233 39.1535 13.2052C39.1052 13.1581 39.057 13.111 39.0088 13.064C38.4979 13.1286 37.9882 13.223 37.4755 13.2447C37.2422 13.2546 36.9601 13.177 36.7763 13.0389C36.5015 12.8324 36.2713 12.807 35.9601 12.9306C34.9687 13.3241 33.964 13.6841 32.9732 14.0783C32.7514 14.1666 32.5536 14.3279 32.3639 14.4793C31.7903 14.9367 31.267 15.3992 30.4008 15.1452C29.9508 15.0131 29.4435 15.2478 29.1493 15.6973C28.8853 16.1009 28.5289 16.3174 28.0493 16.4072C27.7206 16.4687 27.4114 16.6381 27.0961 16.7658C26.4927 17.0103 25.9074 17.3167 25.2846 17.4929C24.4163 17.7385 23.7136 18.1978 23.2134 18.9187C22.3994 20.0917 21.6019 21.2794 20.8685 22.5029C20.6352 22.8919 20.5975 23.41 20.5226 23.8774C20.3349 25.0499 20.2937 26.223 20.5942 27.3901C20.7008 27.804 20.7646 28.2288 20.8682 28.75Z" fill="white"/>
<path d="M31.747 18.5C32.7836 18.5 33.7216 18.9196 34.4005 19.5977C35.08 20.2764 35.5 21.2139 35.5 22.2491C35.5 24.8268 33.6216 26.603 31.1784 28.7872C30.4346 29.4522 29.643 30.1596 28.8518 30.9509C28.732 31.0706 28.6142 31.1904 28.4981 31.3098C28.3821 31.1903 28.2643 31.0706 28.1447 30.9509C27.3546 30.1609 26.5645 29.4544 25.822 28.7904C23.3781 26.6046 21.5 24.828 21.5 22.2491C21.5 21.2142 21.9198 20.2769 22.5983 19.5984C23.2769 18.9198 24.2143 18.5 25.2491 18.5C26.1524 18.5 26.8354 18.7254 27.4087 19.1554C27.8149 19.4601 28.1667 19.875 28.4982 20.4063C28.8295 19.875 29.1813 19.4601 29.5874 19.1554C30.1607 18.7254 30.8438 18.5 31.747 18.5Z" fill="#FF8485" stroke="#6B281C"/>
</svg>
