<svg width="36" height="42" viewBox="0 0 36 42" fill="none" xmlns="http://www.w3.org/2000/svg">
<path d="M23.037 1L23.2565 1.01268C23.2939 1.01701 23.331 1.02246 23.3733 1.03019L23.4412 1.04366L23.4963 1.0565L23.6708 1.10949C23.7633 1.14214 23.8531 1.18224 23.9376 1.22806L24.0601 1.30086L34.1235 7.68941C34.6238 8.00705 34.9434 8.53905 34.9932 9.12352L35 9.2841V34.28C35 35.3232 34.1543 36.1689 33.1111 36.1689C32.8123 36.1689 32.5187 36.0981 32.2539 35.9632L32.0987 35.8747L25.8665 31.9168C26.0409 31.5274 26.2054 31.1338 26.3581 30.7372L32.7737 34.8116C32.8493 34.8596 32.9341 34.8908 33.0222 34.9033L33.1111 34.9097C33.4272 34.9097 33.6889 34.6767 33.7339 34.3731L33.7407 34.28V9.2841C33.7407 9.09938 33.6598 8.92565 33.522 8.80704L33.4486 8.75254L23.952 2.724L23.9525 17.1838C23.4737 16.7744 22.9569 16.4088 22.408 16.0931L22.407 2.541L13.878 7.956L13.8783 15.3707C13.3404 15.5686 12.8237 15.811 12.3327 16.0934L12.333 8.139L3.22634 2.35732C3.15066 2.30928 3.06591 2.27814 2.97784 2.26557L2.88889 2.25926C2.57277 2.25926 2.31106 2.49223 2.26609 2.79585L2.25926 2.88889V27.8848C2.25926 28.0695 2.34025 28.2433 2.47797 28.3619L2.55144 28.4164L9.50542 32.832C9.91502 33.6278 10.3596 34.4084 10.8226 35.1599L1.87654 29.4795C1.37618 29.1619 1.05661 28.6299 1.00682 28.0454L1 27.8848V2.88889C1 1.84568 1.84568 1 2.88889 1C3.18766 1 3.4813 1.07086 3.74604 1.20568L3.90124 1.29419L12.9617 7.04587L22.0082 1.30458L22.1344 1.22939L22.2678 1.16361L22.4095 1.10697L22.6309 1.04411L22.8414 1.01009L23.037 1Z" fill="white" stroke="white" stroke-width="0.25"/>
<path d="M17.371 16.1111C22.2387 16.1111 26.1853 20.0857 26.1853 24.9898C26.1853 30.0808 22.3488 35.6776 19.6849 38.4651C19.5139 38.6439 19.3384 38.8318 19.1641 39.0213L18.9045 39.3057C18.0898 40.2043 17.37 41.0543 17.37 41.0543C17.37 41.0543 16.6429 40.1372 15.8458 39.2165L15.5925 38.9268C15.4655 38.7829 15.3384 38.6413 15.2139 38.5056C12.5479 35.5966 8.55566 29.6218 8.55566 24.9898C8.55566 20.0857 12.5022 16.1111 17.371 16.1111ZM17.3705 21.4C15.4241 21.4 13.8446 22.9774 13.8446 24.9264C13.8446 26.8735 15.4241 28.4518 17.3705 28.4518C19.3169 28.4518 20.8964 26.8726 20.8964 24.9264C20.8964 22.9783 19.3169 21.4 17.3705 21.4Z" fill="#FF8485"/>
</svg>
