<svg width="36" height="36" viewBox="0 0 36 36" fill="none" xmlns="http://www.w3.org/2000/svg">
<path d="M29.7818 4.93677C32.1315 4.93677 34.0364 6.84159 34.0364 9.19131L34.036 17.0458H32.399L32.4 9.19131C32.4 7.80095 31.3162 6.66371 29.9474 6.57828L29.7818 6.57313H4.25455C2.80856 6.57313 1.63636 7.74533 1.63636 9.19131V31.4459C1.63636 32.8918 2.80856 34.064 4.25455 34.064H29.7818C31.2278 34.064 32.4 32.8918 32.4 31.4459L32.399 24.8998H34.036L34.0364 31.4459C34.0364 33.7265 32.2419 35.588 29.988 35.6955L29.7818 35.7004H4.25455C1.90482 35.7004 0 33.7956 0 31.4459V9.19131C0 6.84159 1.90482 4.93677 4.25455 4.93677H29.7818Z" fill="white"/>
<path fill-rule="evenodd" clip-rule="evenodd" d="M24.8846 1.00033L29.4301 8.87329C29.6074 9.18038 29.694 9.51494 29.6982 9.84596L6.15308 9.84508C6.32308 9.5316 6.57905 9.25966 6.91053 9.06828L22.1526 0.268283C23.1092 -0.284002 24.3323 0.0437487 24.8846 1.00033Z" fill="#FF8485"/>
<path d="M32.7273 8.70044C33.1792 8.70044 33.5455 9.06675 33.5455 9.51862C33.5455 9.94225 33.2235 10.2907 32.811 10.3326L32.7273 10.3368H3.92731C3.47544 10.3368 3.10913 9.97049 3.10913 9.51862C3.10913 9.09499 3.43109 8.74656 3.84366 8.70466L3.92731 8.70044H32.7273Z" fill="white"/>
<path d="M34.3637 16.0641H27.8183C25.1071 16.0641 22.9092 18.262 22.9092 20.9732C22.9092 23.6844 25.1071 25.8823 27.8183 25.8823H34.3637C35.2675 25.8823 36.0001 25.1496 36.0001 24.2459V17.7005C36.0001 16.7967 35.2675 16.0641 34.3637 16.0641ZM34.3637 17.7005V24.2459H27.8183C26.0108 24.2459 24.5455 22.7807 24.5455 20.9732C24.5455 19.1657 26.0108 17.7005 27.8183 17.7005H34.3637Z" fill="white"/>
<path d="M27.8181 22.2822C28.5411 22.2822 29.1272 21.6961 29.1272 20.9732C29.1272 20.2502 28.5411 19.6641 27.8181 19.6641C27.0951 19.6641 26.509 20.2502 26.509 20.9732C26.509 21.6961 27.0951 22.2822 27.8181 22.2822Z" fill="white"/>
</svg>
