<svg width="39" height="40" viewBox="0 0 39 40" fill="none" xmlns="http://www.w3.org/2000/svg">
<path fill-rule="evenodd" clip-rule="evenodd" d="M15.3083 2.21819C15.3037 2.23879 15.3037 2.26043 15.2995 2.30232C16.4248 2.84104 17.7052 3.00705 18.6752 3.86429C18.7054 3.80647 18.7225 3.78345 18.7307 3.75748C19.0114 2.86406 19.7203 2.42731 20.6374 2.66343C21.3307 2.84208 21.9975 3.12044 22.6802 3.34046C23.0904 3.47272 23.5034 3.61086 23.9258 3.68443C24.2236 3.73636 24.5401 3.69222 24.8474 3.67699C25.5602 3.64184 26.0509 3.97941 26.3901 4.57352C26.7711 5.24051 26.9868 5.96896 27.1724 6.70675C27.4144 7.66924 27.6338 8.63779 27.8935 9.59543C28.0074 10.015 28.1508 10.4399 28.4769 10.7596C28.6171 10.8972 28.7704 11.0265 28.9346 11.134C29.5774 11.5547 30.0421 12.1268 30.4108 12.7893C30.5812 13.0952 30.7831 13.3838 30.9541 13.6893C31.0656 13.8884 31.2375 13.9062 31.4219 13.8763C32.3192 13.7308 33.1625 13.4611 33.8386 12.8128C34.0005 12.6576 34.1797 12.5198 34.3737 12.3548C34.6783 12.9681 35.0958 13.4932 35.1944 14.1652C35.3007 14.8876 35.129 15.5587 34.8037 16.198C34.2813 17.2242 33.5277 18.0749 32.6817 18.8376C31.9756 19.4741 31.2434 20.0899 30.4717 20.6443C29.6025 21.2686 29.107 22.1126 28.7821 23.0893C28.6356 23.5297 28.7688 23.9595 28.8743 24.3823C29.0616 25.1331 29.3019 25.8717 29.465 26.6272C29.726 27.8351 29.2224 28.8426 28.1304 29.4355C27.7719 29.6301 27.4266 29.8496 27.0811 30.0667C26.9033 30.1783 26.8911 30.3082 27.0418 30.4752C27.3502 30.8176 27.5652 31.2102 27.6447 31.6731C27.7898 32.5191 27.254 33.4273 26.4272 33.6007C26.0979 33.6698 26.0349 33.7877 25.9923 34.087C25.9592 34.3179 25.798 34.563 25.6264 34.7358C25.1479 35.2181 24.805 35.7774 24.5228 36.3867C24.3198 36.8254 23.958 37.1292 23.5537 37.3788C22.8506 37.8132 22.067 38.032 21.2647 38.19C20.7401 38.2934 20.2142 38.3945 19.685 38.4701C18.5795 38.6283 17.4284 37.684 17.3953 36.5737C17.3851 36.2289 17.2854 35.9661 17.0876 35.6829C16.3411 34.6131 15.8189 33.4451 15.7043 32.1282C15.6747 31.7889 15.5601 31.4903 15.3652 31.2163C15.1194 30.8704 14.8799 30.5197 14.6271 30.1789C13.8758 29.1653 13.777 28.0777 14.2425 26.9237C14.3764 26.5917 14.5073 26.2579 14.6555 25.9323C15.0138 25.1453 14.8928 24.3913 14.4993 23.6616C14.3683 23.4184 14.2047 23.1894 14.0343 22.9707C13.4477 22.2189 13.1711 21.3556 13.0665 20.4224C13.0223 20.0275 13.0002 19.641 13.0971 19.2477C13.1262 19.1301 13.051 18.9809 13.0015 18.8547C12.9876 18.8191 12.8931 18.7921 12.8395 18.7981C12.0654 18.8838 11.4917 18.568 11.0495 17.9511C10.943 17.8026 10.7904 17.6751 10.6346 17.5761C10.459 17.4646 10.2606 17.4698 10.0713 17.5839C9.26933 18.0672 8.41919 18.1323 7.52434 17.8905C7.39474 17.8555 7.22878 17.918 7.08892 17.9637C6.79701 18.0593 6.51833 18.2012 6.22173 18.2748C5.62122 18.4235 5.05776 18.2784 4.52632 17.9867C3.75898 17.5656 3.03913 17.0987 2.45115 16.4232C2.00738 15.9136 1.45227 15.4999 0.947267 15.0432C0.670497 14.7929 0.38903 14.5472 0.122175 14.2867C0.058332 14.2246 0.0221484 14.1139 0.0117108 14.0213C-0.0580471 13.3997 0.204284 12.8701 0.480881 12.3396C0.661973 11.9923 0.817667 11.6298 0.957183 11.2637C1.05269 11.0132 0.996498 10.7788 0.772437 10.5955C0.659885 10.5034 0.568556 10.3855 0.468703 10.2785C-0.0369979 9.73669 -0.134415 9.10726 0.180974 8.43888C0.730861 7.27403 1.5737 6.37178 2.66495 5.69112C2.86378 5.567 3.06053 5.43941 3.25676 5.31114C3.40393 5.21506 3.45681 5.08627 3.45316 4.90312C3.44759 4.6348 3.46812 4.36267 3.5083 4.09695C3.58276 3.6048 3.83343 3.21028 4.23789 2.9153C4.33844 2.8419 4.43829 2.76591 4.5458 2.70376C4.75821 2.58086 4.87041 2.43648 4.89076 2.16003C4.95026 1.35403 5.76543 0.797134 6.64167 0.938218C6.86973 0.974918 7.08474 1.08553 7.31054 1.14353C7.44658 1.17832 7.60436 1.22021 7.73083 1.18421C8.15321 1.06407 8.57332 0.928178 8.98091 0.765628C9.92534 0.389115 10.9153 0.230719 11.9172 0.125123C12.4352 0.070593 12.9552 0.0202181 13.4755 0.00152224C14.7649 -0.044698 15.5943 0.967647 15.3083 2.21819ZM13.44 1.85276C13.082 1.87924 12.7604 1.89586 12.4404 1.92806C11.3208 2.04041 10.2188 2.19603 9.18983 2.71519C8.39692 3.11524 7.54661 3.24213 6.66046 2.90215C6.48511 3.52171 6.04655 3.92228 5.54363 4.26971C5.53772 4.27387 5.53268 4.27941 5.52641 4.28322C5.38916 4.36787 5.34497 4.48195 5.34967 4.64865C5.37402 5.52285 5.10839 6.27761 4.3748 6.81373C4.16866 6.96434 3.94164 7.08742 3.72071 7.21725C3.00417 7.63791 2.42053 8.18718 2.01434 8.91788C1.93379 9.06294 1.93518 9.14985 2.062 9.26929C2.78411 9.94892 3.01687 10.783 2.75384 11.7283C2.62963 12.1744 2.42471 12.5992 2.24327 13.0284C2.17316 13.194 2.06705 13.3446 1.97102 13.5131C2.05713 13.5837 2.13298 13.6405 2.20239 13.704C2.79246 14.2412 3.41611 14.7475 3.95886 15.3286C4.35236 15.75 4.81613 16.0251 5.30861 16.2858C5.64227 16.4623 5.95227 16.4878 6.3014 16.2946C6.89339 15.9672 7.52017 15.9196 8.17547 16.1305C8.34682 16.1855 8.56619 16.1513 8.74763 16.1012C9.01466 16.0275 9.2622 15.8855 9.52801 15.8045C9.77086 15.7306 10.0266 15.6584 10.2773 15.6558C11.2406 15.646 11.9768 16.0952 12.5384 16.8475C12.6405 16.9843 12.7329 17.0468 12.8727 16.9348C13.2817 16.6076 13.6267 16.7269 13.9454 17.0724L13.9793 17.1001C14.6515 17.7877 15.0909 18.5558 14.939 19.57C14.8233 20.3412 14.9237 21.0781 15.4145 21.7302C15.6646 22.0628 15.9115 22.4043 16.1077 22.7692C16.8112 24.0786 16.97 25.422 16.3053 26.8049C16.1601 27.1072 16.0512 27.4268 15.9256 27.7384C15.7513 28.1704 15.7843 28.5814 16.0567 28.9654C16.298 29.3053 16.5362 29.6478 16.7865 29.9813C17.2468 30.5947 17.498 31.2798 17.5738 32.042C17.6747 33.058 18.0752 33.9559 18.7321 34.7382C18.9728 35.0251 19.1492 35.3432 19.2171 35.7081C19.2527 35.8996 19.2291 36.1013 19.2371 36.2981C19.2456 36.5126 19.387 36.6248 19.5966 36.5908C19.821 36.5547 20.0453 36.5161 20.2704 36.4845C21.0215 36.3795 21.763 36.2431 22.4376 35.8704C22.6863 35.7327 22.8617 35.5461 23.0076 35.2892C23.302 34.7706 23.6417 34.2751 23.9921 33.7913C24.1292 33.6019 24.3261 33.4657 24.145 33.2058C24.1229 33.1742 24.129 33.1205 24.1283 33.0769C24.1213 32.5795 24.3482 32.2098 24.7951 32.01C25.0701 31.8869 25.3787 31.8386 25.6614 31.7597C25.4918 31.4838 25.2945 31.2018 25.1376 30.8992C24.8278 30.3016 24.9172 29.6931 25.3585 29.1907C25.7922 28.6969 26.2711 28.2617 26.8772 27.9802C27.0425 27.9035 27.1921 27.7936 27.3507 27.7022C27.7133 27.4931 27.7073 27.168 27.6299 26.8868C27.4361 26.183 27.2249 25.4829 27.0593 24.7725C26.9036 24.1043 26.7533 23.4222 26.9372 22.7357C27.3241 21.2919 28.0744 20.0881 29.3172 19.2096C29.7656 18.8926 30.2138 18.5674 30.6166 18.1967C31.2626 17.6026 31.8865 16.9827 32.4864 16.3427C32.7275 16.0857 32.8804 15.7465 33.086 15.4247C32.5434 15.5308 32.0661 15.647 31.5819 15.7138C30.752 15.8281 30.0304 15.6191 29.5351 14.8981C29.1956 14.4039 28.8739 13.8972 28.5583 13.3876C28.3701 13.0838 28.1415 12.834 27.8432 12.6295C27.1367 12.1453 26.5898 11.5175 26.3169 10.6992C26.0631 9.93819 25.8474 9.16404 25.6325 8.39076C25.4001 7.55447 25.2162 6.70398 24.9558 5.87704C24.8153 5.43024 24.8492 5.5007 24.4019 5.53376C23.8726 5.57305 23.3564 5.52891 22.8598 5.35875C22.1942 5.13076 21.5403 4.86919 20.8796 4.62684C20.7328 4.573 20.5785 4.53959 20.4221 4.49527C20.3883 4.60555 20.3683 4.68293 20.341 4.75771C20.134 5.32222 19.7374 5.65996 19.1351 5.74686C18.5165 5.83618 17.9859 5.63001 17.4827 5.28708C17.1887 5.08662 16.8761 4.89862 16.5466 4.76706C15.9141 4.51449 15.2638 4.30572 14.6207 4.07929C13.9407 3.83971 13.3663 3.42702 12.796 3.00168C12.994 2.60873 13.3304 2.30959 13.44 1.85276ZM33.6051 24.7886C33.768 24.9488 33.8492 25.1233 33.878 25.3371C33.9948 26.2014 33.8689 27.0279 33.5685 27.8331C33.3275 28.4801 33.151 29.1412 33.1346 29.8503C33.1246 30.2819 32.9226 30.6547 32.6754 30.9915C32.6502 31.026 32.6202 31.059 32.5869 31.0837C32.1075 31.4381 31.896 31.3817 31.6559 30.9001C31.4014 30.3903 31.2776 29.8393 31.32 29.2552C31.3257 29.1756 31.3361 29.0883 31.371 29.0202C31.5529 28.6629 31.5511 28.2829 31.5055 27.8965C31.4219 27.1888 31.575 26.7876 32.1668 26.5054C32.8048 26.2012 33.1689 25.6583 33.4758 25.035C33.5137 24.9583 33.555 24.8835 33.6051 24.7886Z" fill="white"/>
<path fill-rule="evenodd" clip-rule="evenodd" d="M28.5 20.8704L31.3301 26.6048L37.6585 27.5244L33.0792 31.988L34.1603 38.2908L28.5 35.315L22.8398 38.2908L23.9208 31.988L19.3416 27.5244L25.6699 26.6048L28.5 20.8704Z" fill="#FF8485" stroke="#6B281C"/>
</svg>
